<?xml version="1.0" encoding="UTF-8" standalone="no"?>
<!DOCTYPE svg PUBLIC "-//W3C//DTD SVG 1.1//EN" "http://www.w3.org/Graphics/SVG/1.1/DTD/svg11.dtd">
<svg version="1.1" xmlns="http://www.w3.org/2000/svg" xmlns:xlink="http://www.w3.org/1999/xlink" preserveAspectRatio="xMidYMid meet" viewBox="0 0 100 100" width="100" height="100"><defs><path d="M50.09 43.03L50.13 43.04L50.18 43.04L50.23 43.05L50.27 43.05L50.32 43.06L50.37 43.07L50.42 43.08L50.47 43.09L50.52 43.11L50.57 43.12L50.62 43.14L50.68 43.15L50.73 43.17L50.79 43.19L50.84 43.21L50.9 43.23L50.95 43.26L51.01 43.28L51.07 43.31L51.13 43.33L51.19 43.36L51.25 43.39L51.31 43.42L51.37 43.45L51.43 43.49L51.49 43.52L51.56 43.56L51.62 43.59L51.69 43.63L51.75 43.67L51.82 43.71L51.89 43.75L51.95 43.8L52.02 43.84L52.09 43.89L52.16 43.94L52.23 43.98L52.3 44.03L99 90.73L99.05 90.78L99.1 90.83L99.14 90.88L99.19 90.93L99.23 90.98L99.28 91.04L99.32 91.09L99.36 91.14L99.4 91.2L99.44 91.25L99.47 91.3L99.51 91.36L99.54 91.41L99.58 91.47L99.61 91.52L99.64 91.58L99.67 91.64L99.7 91.69L99.72 91.75L99.75 91.81L99.77 91.86L99.8 91.92L99.82 91.98L99.84 92.04L99.86 92.1L99.88 92.16L99.89 92.22L99.91 92.28L99.92 92.34L99.94 92.4L99.95 92.46L99.96 92.53L99.97 92.59L99.98 92.65L99.98 92.71L99.99 92.78L99.99 92.84L100 92.91L100 92.97L100 93.04L100 93.1L100 93.16L99.99 93.23L99.99 93.29L99.98 93.36L99.98 93.42L99.97 93.48L99.96 93.54L99.95 93.61L99.94 93.67L99.92 93.73L99.91 93.79L99.89 93.85L99.88 93.91L99.86 93.97L99.84 94.03L99.82 94.09L99.8 94.15L99.78 94.2L99.75 94.26L99.73 94.32L99.7 94.38L99.67 94.43L99.64 94.49L99.61 94.55L99.58 94.6L99.55 94.66L99.51 94.71L99.48 94.77L99.44 94.82L99.4 94.87L99.36 94.93L99.32 94.98L99.28 95.03L99.24 95.08L99.19 95.14L99.15 95.19L99.1 95.24L99.05 95.29L99 95.34L93.99 100.35L93.94 100.4L93.89 100.45L93.84 100.49L93.79 100.54L93.74 100.58L93.68 100.63L93.63 100.67L93.58 100.71L93.53 100.75L93.47 100.79L93.42 100.83L93.36 100.86L93.31 100.9L93.25 100.93L93.2 100.96L93.14 100.99L93.09 101.02L93.03 101.05L92.97 101.08L92.91 101.1L92.86 101.13L92.8 101.15L92.74 101.17L92.68 101.19L92.62 101.21L92.56 101.23L92.5 101.25L92.44 101.26L92.38 101.28L92.32 101.29L92.26 101.3L92.19 101.31L92.13 101.32L92.07 101.33L92.01 101.34L91.94 101.34L91.88 101.35L91.81 101.35L91.75 101.35L91.69 101.35L91.62 101.35L91.56 101.35L91.49 101.35L91.43 101.34L91.36 101.34L91.3 101.33L91.24 101.32L91.18 101.31L91.12 101.3L91.05 101.29L90.99 101.28L90.93 101.26L90.87 101.25L90.81 101.23L90.75 101.21L90.69 101.19L90.63 101.17L90.57 101.15L90.52 101.13L90.46 101.1L90.4 101.08L90.34 101.05L90.29 101.02L90.23 100.99L90.18 100.96L90.12 100.93L90.06 100.9L90.01 100.86L89.96 100.83L89.9 100.79L89.85 100.75L89.79 100.71L89.74 100.67L89.69 100.63L89.64 100.58L89.59 100.54L89.53 100.49L89.48 100.45L89.43 100.4L89.38 100.35L50 60.97L10.62 100.35L10.57 100.4L10.52 100.45L10.47 100.49L10.42 100.54L10.37 100.58L10.31 100.63L10.26 100.67L10.21 100.71L10.15 100.75L10.1 100.79L10.05 100.82L9.99 100.86L9.94 100.89L9.88 100.93L9.83 100.96L9.77 100.99L9.71 101.02L9.66 101.05L9.6 101.07L9.54 101.1L9.49 101.12L9.43 101.15L9.37 101.17L9.31 101.19L9.25 101.21L9.19 101.23L9.13 101.24L9.07 101.26L9.01 101.27L8.95 101.29L8.89 101.3L8.83 101.31L8.76 101.32L8.7 101.33L8.64 101.33L8.57 101.34L8.51 101.34L8.45 101.35L8.38 101.35L8.32 101.35L8.25 101.35L8.19 101.35L8.12 101.34L8.06 101.34L8 101.33L7.93 101.33L7.87 101.32L7.81 101.31L7.75 101.3L7.68 101.29L7.62 101.27L7.56 101.26L7.5 101.24L7.44 101.23L7.38 101.21L7.32 101.19L7.26 101.17L7.2 101.15L7.15 101.12L7.09 101.1L7.03 101.07L6.97 101.05L6.92 101.02L6.86 100.99L6.81 100.96L6.75 100.93L6.69 100.89L6.64 100.86L6.59 100.82L6.53 100.79L6.48 100.75L6.42 100.71L6.37 100.67L6.32 100.63L6.27 100.58L6.21 100.54L6.16 100.49L6.11 100.45L6.06 100.4L6.01 100.35L1 95.34L0.95 95.29L0.9 95.24L0.86 95.19L0.81 95.14L0.77 95.08L0.72 95.03L0.68 94.98L0.64 94.93L0.6 94.87L0.56 94.82L0.53 94.77L0.49 94.71L0.46 94.66L0.42 94.6L0.39 94.55L0.36 94.49L0.33 94.43L0.3 94.38L0.28 94.32L0.25 94.26L0.23 94.2L0.2 94.15L0.18 94.09L0.16 94.03L0.14 93.97L0.12 93.91L0.11 93.85L0.09 93.79L0.08 93.73L0.06 93.67L0.05 93.61L0.04 93.54L0.03 93.48L0.02 93.42L0.02 93.36L0.01 93.29L0.01 93.23L0 93.16L0 93.1L0 93.04L0 92.97L0 92.91L0.01 92.84L0.01 92.78L0.02 92.71L0.02 92.65L0.03 92.59L0.04 92.53L0.05 92.46L0.06 92.4L0.08 92.34L0.09 92.28L0.11 92.22L0.12 92.16L0.14 92.1L0.16 92.04L0.18 91.98L0.2 91.92L0.23 91.86L0.25 91.81L0.28 91.75L0.3 91.69L0.33 91.64L0.36 91.58L0.39 91.52L0.42 91.47L0.46 91.41L0.49 91.36L0.53 91.3L0.56 91.25L0.6 91.2L0.64 91.14L0.68 91.09L0.72 91.04L0.77 90.98L0.81 90.93L0.86 90.88L0.9 90.83L0.95 90.78L1 90.73L47.7 44.03L47.75 43.98L47.8 43.94L47.85 43.89L47.9 43.84L47.95 43.8L48 43.75L48.06 43.71L48.11 43.67L48.16 43.63L48.22 43.59L48.27 43.56L48.32 43.52L48.38 43.49L48.43 43.45L48.49 43.42L48.55 43.39L48.6 43.36L48.66 43.33L48.72 43.31L48.77 43.28L48.83 43.26L48.89 43.23L48.95 43.21L49.01 43.19L49.07 43.17L49.13 43.15L49.19 43.14L49.25 43.12L49.31 43.11L49.37 43.09L49.43 43.08L49.49 43.07L49.55 43.06L49.62 43.05L49.68 43.05L49.74 43.04L49.81 43.04L49.87 43.03L49.94 43.03L50 43.03L50.04 43.03L50.09 43.03ZM50.13 4.55L50.19 4.56L50.26 4.56L50.32 4.57L50.38 4.57L50.45 4.58L50.51 4.59L50.57 4.6L50.63 4.61L50.69 4.63L50.75 4.64L50.82 4.66L50.88 4.67L50.94 4.69L50.99 4.71L51.05 4.73L51.11 4.75L51.17 4.78L51.23 4.8L51.29 4.83L51.34 4.85L51.4 4.88L51.45 4.91L51.51 4.94L51.57 4.97L51.62 5.01L51.68 5.04L51.73 5.08L51.78 5.11L51.84 5.15L51.89 5.19L51.94 5.23L52 5.27L52.05 5.32L52.1 5.36L52.15 5.41L52.2 5.45L52.25 5.5L52.3 5.55L99 52.25L99.05 52.3L99.1 52.35L99.14 52.4L99.19 52.45L99.23 52.5L99.28 52.56L99.32 52.61L99.36 52.66L99.4 52.72L99.44 52.77L99.47 52.82L99.51 52.88L99.54 52.93L99.58 52.99L99.61 53.04L99.64 53.1L99.67 53.16L99.7 53.21L99.72 53.27L99.75 53.33L99.77 53.38L99.8 53.44L99.82 53.5L99.84 53.56L99.86 53.62L99.88 53.68L99.89 53.74L99.91 53.8L99.92 53.86L99.94 53.92L99.95 53.98L99.96 54.05L99.97 54.11L99.98 54.17L99.98 54.23L99.99 54.3L99.99 54.36L100 54.42L100 54.49L100 54.55L100 54.62L100 54.68L99.99 54.75L99.99 54.81L99.98 54.87L99.98 54.94L99.97 55L99.96 55.06L99.95 55.12L99.94 55.19L99.92 55.25L99.91 55.31L99.89 55.37L99.88 55.43L99.86 55.49L99.84 55.55L99.82 55.61L99.8 55.66L99.78 55.72L99.75 55.78L99.73 55.84L99.7 55.9L99.67 55.95L99.64 56.01L99.61 56.06L99.58 56.12L99.55 56.18L99.51 56.23L99.48 56.28L99.44 56.34L99.4 56.39L99.36 56.45L99.32 56.5L99.28 56.55L99.24 56.6L99.19 56.65L99.15 56.71L99.1 56.76L99.05 56.81L99 56.86L93.99 61.87L93.94 61.92L93.89 61.97L93.84 62.01L93.79 62.06L93.74 62.1L93.68 62.15L93.63 62.19L93.58 62.23L93.53 62.27L93.47 62.31L93.42 62.34L93.36 62.38L93.31 62.41L93.25 62.45L93.2 62.48L93.14 62.51L93.09 62.54L93.03 62.57L92.97 62.59L92.91 62.62L92.86 62.64L92.8 62.67L92.74 62.69L92.68 62.71L92.62 62.73L92.56 62.75L92.5 62.76L92.44 62.78L92.38 62.79L92.32 62.81L92.26 62.82L92.19 62.83L92.13 62.84L92.07 62.85L92.01 62.85L91.94 62.86L91.88 62.86L91.81 62.87L91.75 62.87L91.69 62.87L91.62 62.87L91.56 62.87L91.49 62.86L91.43 62.86L91.36 62.85L91.3 62.85L91.24 62.84L91.18 62.83L91.12 62.82L91.05 62.81L90.99 62.79L90.93 62.78L90.87 62.76L90.81 62.75L90.75 62.73L90.69 62.71L90.63 62.69L90.57 62.67L90.52 62.64L90.46 62.62L90.4 62.59L90.34 62.57L90.29 62.54L90.23 62.51L90.18 62.48L90.12 62.45L90.06 62.41L90.01 62.38L89.96 62.34L89.9 62.31L89.85 62.27L89.79 62.23L89.74 62.19L89.69 62.15L89.64 62.1L89.59 62.06L89.53 62.01L89.48 61.97L89.43 61.92L89.38 61.87L50 22.49L10.62 61.87L10.57 61.92L10.52 61.97L10.47 62.01L10.42 62.06L10.37 62.1L10.31 62.15L10.26 62.19L10.21 62.23L10.15 62.27L10.1 62.31L10.05 62.34L9.99 62.38L9.94 62.41L9.88 62.45L9.83 62.48L9.77 62.51L9.71 62.54L9.66 62.57L9.6 62.59L9.54 62.62L9.49 62.64L9.43 62.67L9.37 62.69L9.31 62.71L9.25 62.73L9.19 62.75L9.13 62.76L9.07 62.78L9.01 62.79L8.95 62.81L8.89 62.82L8.83 62.83L8.76 62.84L8.7 62.85L8.64 62.85L8.57 62.86L8.51 62.86L8.45 62.87L8.38 62.87L8.32 62.87L8.27 62.87L8.23 62.87L8.18 62.86L8.14 62.86L8.09 62.85L8.04 62.85L7.99 62.84L7.95 62.83L7.9 62.82L7.85 62.81L7.8 62.79L7.74 62.78L7.69 62.76L7.64 62.75L7.59 62.73L7.53 62.71L7.48 62.69L7.42 62.67L7.36 62.64L7.31 62.62L7.25 62.59L7.19 62.57L7.13 62.54L7.07 62.51L7.01 62.48L6.95 62.45L6.89 62.41L6.82 62.38L6.76 62.34L6.69 62.31L6.63 62.27L6.56 62.23L6.5 62.19L6.43 62.15L6.36 62.1L6.29 62.06L6.22 62.01L6.15 61.97L6.08 61.92L6.01 61.87L1 56.86L0.95 56.81L0.9 56.76L0.86 56.71L0.81 56.65L0.77 56.6L0.72 56.55L0.68 56.5L0.64 56.45L0.6 56.39L0.56 56.34L0.53 56.28L0.49 56.23L0.46 56.17L0.42 56.12L0.39 56.06L0.36 56.01L0.33 55.95L0.3 55.9L0.28 55.84L0.25 55.78L0.23 55.72L0.2 55.66L0.18 55.61L0.16 55.55L0.14 55.49L0.12 55.43L0.11 55.37L0.09 55.31L0.08 55.25L0.06 55.19L0.05 55.12L0.04 55.06L0.03 55L0.02 54.94L0.02 54.88L0.01 54.81L0.01 54.75L0 54.68L0 54.62L0 54.56L0 54.49L0 54.43L0.01 54.36L0.01 54.3L0.02 54.23L0.02 54.17L0.03 54.11L0.04 54.05L0.05 53.98L0.06 53.92L0.08 53.86L0.09 53.8L0.11 53.74L0.12 53.68L0.14 53.62L0.16 53.56L0.18 53.5L0.2 53.44L0.23 53.38L0.25 53.33L0.28 53.27L0.3 53.21L0.33 53.16L0.36 53.1L0.39 53.04L0.42 52.99L0.46 52.93L0.49 52.88L0.53 52.82L0.56 52.77L0.6 52.72L0.64 52.66L0.68 52.61L0.72 52.56L0.77 52.5L0.81 52.45L0.86 52.4L0.9 52.35L0.95 52.3L1 52.25L47.7 5.55L47.75 5.5L47.8 5.45L47.85 5.41L47.9 5.36L47.95 5.32L48 5.27L48.06 5.23L48.11 5.19L48.16 5.15L48.22 5.11L48.27 5.08L48.32 5.04L48.38 5.01L48.43 4.97L48.49 4.94L48.55 4.91L48.6 4.88L48.66 4.85L48.72 4.83L48.77 4.8L48.83 4.78L48.89 4.75L48.95 4.73L49.01 4.71L49.07 4.69L49.13 4.67L49.19 4.66L49.25 4.64L49.31 4.63L49.37 4.61L49.43 4.6L49.49 4.59L49.55 4.58L49.62 4.57L49.68 4.57L49.74 4.56L49.81 4.56L49.87 4.55L49.94 4.55L50 4.55L50.07 4.55L50.13 4.55Z" id="a2YOQnK7G"></path></defs><g><g><g><use xlink:href="#a2YOQnK7G" opacity="1" fill="#a6534a" fill-opacity="1"></use><g><use xlink:href="#a2YOQnK7G" opacity="1" fill-opacity="0" stroke="#000000" stroke-width="1" stroke-opacity="0"></use></g></g></g></g></svg>